<svg viewBox="0 0 200 181" fill="none" xmlns="http://www.w3.org/2000/svg" width="120" height="120" alt="Oasys"><path d="M133.039 74.868a45.806 45.806 0 0 0 5.277-7.17c4.052-6.79 6.079-14.237 6.079-22.343 0-8.105-2.013-15.697-6.027-22.513-4.013-6.829-9.421-12.21-16.21-16.145-6.79-3.947-14.119-5.908-22-5.908-7.882 0-15.355 1.974-22.171 5.908C71.157 10.645 65.724 16 61.67 22.79c-4.053 6.79-6.079 14.198-6.079 22.237 0 8.04 2.026 15.921 6.079 22.75a46.195 46.195 0 0 0 5.21 7.158C59.58 79.487 55.119 85.553 55.119 92.21c0 14.132 20.132 25.619 44.869 25.619s44.868-11.487 44.868-25.618c0-6.672-4.487-12.75-11.829-17.316l.013-.027Zm-65.236 28.303c-4.487-3.316-6.908-7.132-6.908-10.987 0-4.71 3.631-9.368 10.21-13.131a44.684 44.684 0 0 0 6.316 4.526c-6.737 3.526-10.96 8.592-10.96 14.21 0 1.869.473 3.671 1.329 5.382h.013ZM100 111.263c-10.197 0-15.75-4.421-15.75-6.697 0-2.277 5.566-6.698 15.75-6.698 10.184 0 15.75 4.421 15.75 6.698 0 2.276-5.566 6.697-15.75 6.697Zm21.355-5.171a7.38 7.38 0 0 0 .171-1.526c0-6.869-9.658-12.46-21.526-12.46s-21.526 5.591-21.526 12.46c0 .513.066 1.026.17 1.526-3.96-2.342-6.407-5.25-6.407-8.29 0-4.302 4.92-8.355 12.053-10.881 4.868 1.855 9.973 2.79 15.315 2.79 5.342 0 10.895-.961 15.908-2.856 7.237 2.513 12.25 6.605 12.25 10.948 0 3.039-2.46 5.947-6.408 8.289Zm10.842-2.921c.869-1.711 1.329-3.513 1.329-5.382 0-5.657-4.289-10.763-11.105-14.289a44.974 44.974 0 0 0 6.355-4.513c6.645 3.763 10.316 8.447 10.316 13.184 0 3.855-2.421 7.671-6.908 10.987l.013.013ZM116.526 159.947c-1.46-1.171-3.46-2.342-5.934-3.473-2.171-.974-3.855-1.829-5.013-2.527-1.132-.684-1.961-1.421-2.461-2.171-.5-.75-.75-1.658-.75-2.697 0-1.04.263-2 .777-2.829a5.54 5.54 0 0 1 2.184-2c.934-.487 1.987-.737 3.145-.737 1.526 0 2.855.369 3.934 1.092 1.092.737 2.105 1.869 3 3.395l.131.224 4.092-2.369-.118-.223c-1.105-2.119-2.618-3.79-4.46-4.974-1.856-1.184-4.066-1.79-6.579-1.79-2.053 0-3.935.461-5.606 1.356-1.671.908-3.013 2.144-3.96 3.697-.96 1.553-1.448 3.29-1.448 5.171 0 1.882.382 3.434 1.145 4.737s1.869 2.46 3.316 3.447c1.421.974 3.342 2.013 5.71 3.066 2.132.974 3.803 1.908 4.987 2.776 1.158.856 2 1.79 2.487 2.764.487.986.737 2.157.737 3.486 0 1.329-.289 2.461-.868 3.474a6.364 6.364 0 0 1-2.448 2.421c-1.052.592-2.289.895-3.684.895-2.053 0-3.868-.579-5.382-1.724-1.526-1.145-2.697-2.789-3.486-4.895l-.093-.25-4.552 1.895.079.237c.644 1.868 1.605 3.513 2.855 4.908 1.25 1.395 2.803 2.513 4.592 3.303 1.79.789 3.803 1.184 5.987 1.184s4.263-.487 6.079-1.434a10.94 10.94 0 0 0 4.316-4.014c1.039-1.71 1.579-3.71 1.579-5.934 0-2.079-.342-3.895-1.027-5.408-.684-1.513-1.776-2.881-3.25-4.065l-.013-.014ZM198.474 164.013c-.684-1.513-1.777-2.881-3.25-4.066-1.461-1.171-3.461-2.342-5.934-3.473-2.172-.974-3.856-1.829-5.014-2.527-1.131-.684-1.96-1.421-2.46-2.171-.5-.75-.75-1.658-.75-2.697 0-1.04.263-2 .776-2.829a5.54 5.54 0 0 1 2.184-2c.935-.487 1.987-.737 3.145-.737 1.526 0 2.855.369 3.934 1.092 1.092.737 2.106 1.869 3 3.395l.132.224 4.092-2.369-.118-.223c-1.119-2.119-2.619-3.79-4.461-4.974-1.855-1.184-4.066-1.79-6.579-1.79-2.053 0-3.934.461-5.605 1.356-1.671.908-3.013 2.144-3.961 3.697-.96 1.553-1.447 3.29-1.447 5.171 0 1.882.382 3.434 1.145 4.737s1.868 2.46 3.315 3.447c1.422.974 3.343 2.013 5.711 3.066 2.132.974 3.803 1.908 4.987 2.776 1.158.856 2 1.79 2.487 2.764.487.986.737 2.157.737 3.486 0 1.329-.29 2.461-.869 3.474a6.368 6.368 0 0 1-2.447 2.421c-1.053.592-2.29.895-3.684.895-2.053 0-3.869-.579-5.382-1.724-1.526-1.145-2.697-2.789-3.487-4.895l-.092-.25-4.553 1.895.079.237c.645 1.868 1.606 3.513 2.856 4.908 1.25 1.395 2.802 2.513 4.592 3.303 1.789.789 3.802 1.184 5.987 1.184 2.184 0 4.263-.487 6.078-1.434a10.934 10.934 0 0 0 4.316-4.014c1.04-1.71 1.579-3.71 1.579-5.934 0-2.079-.342-3.895-1.026-5.408l-.013-.013ZM162.25 140.105l-2.092 4.342-16.763 35 4.96.119 18.671-39.461h-4.776ZM52.026 179.566l2.092-4.342 16.764-35-4.961-.119-18.671 39.461h4.776ZM68.842 151.342l11.303 23.882 2.052 4.342h4.816l-15.75-33.263-2.421 5.039ZM21.447 138.895c-11.579 0-20.96 9.381-20.96 20.96s9.381 20.961 20.96 20.961c11.58 0 20.96-9.382 20.96-20.961 0-11.579-9.38-20.96-20.96-20.96Zm0 37.25c-9 0-16.29-7.29-16.29-16.29s7.29-16.289 16.29-16.289 16.29 7.289 16.29 16.289c0 9-7.29 16.29-16.29 16.29Z" fill="#fff"></path><path d="M116.526 159.947c-1.46-1.171-3.46-2.342-5.934-3.473-2.171-.974-3.855-1.829-5.013-2.527-1.132-.684-1.961-1.421-2.461-2.171-.5-.75-.75-1.658-.75-2.697 0-1.04.263-2 .777-2.829a5.54 5.54 0 0 1 2.184-2c.934-.487 1.987-.737 3.145-.737 1.526 0 2.855.369 3.934 1.092 1.092.737 2.105 1.869 3 3.395l.131.224 4.092-2.369-.118-.223c-1.105-2.119-2.618-3.79-4.46-4.974-1.856-1.184-4.066-1.79-6.579-1.79-2.053 0-3.935.461-5.606 1.356-1.671.908-3.013 2.144-3.96 3.697-.96 1.553-1.448 3.29-1.448 5.171 0 1.882.382 3.434 1.145 4.737s1.869 2.46 3.316 3.447c1.421.974 3.342 2.013 5.71 3.066 2.132.974 3.803 1.908 4.987 2.776 1.158.856 2 1.79 2.487 2.764.487.986.737 2.157.737 3.486 0 1.329-.289 2.461-.868 3.474a6.364 6.364 0 0 1-2.448 2.421c-1.052.592-2.289.895-3.684.895-2.053 0-3.868-.579-5.382-1.724-1.526-1.145-2.697-2.789-3.486-4.895l-.093-.25-4.552 1.895.079.237c.644 1.868 1.605 3.513 2.855 4.908 1.25 1.395 2.803 2.513 4.592 3.303 1.79.789 3.803 1.184 5.987 1.184s4.263-.487 6.079-1.434a10.94 10.94 0 0 0 4.316-4.014c1.039-1.71 1.579-3.71 1.579-5.934 0-2.079-.342-3.895-1.027-5.408-.684-1.513-1.776-2.881-3.25-4.065l-.013-.014ZM198.474 164.013c-.684-1.513-1.777-2.881-3.25-4.066-1.461-1.171-3.461-2.342-5.934-3.473-2.172-.974-3.856-1.829-5.014-2.527-1.131-.684-1.96-1.421-2.46-2.171-.5-.75-.75-1.658-.75-2.697 0-1.04.263-2 .776-2.829a5.54 5.54 0 0 1 2.184-2c.935-.487 1.987-.737 3.145-.737 1.526 0 2.855.369 3.934 1.092 1.092.737 2.106 1.869 3 3.395l.132.224 4.092-2.369-.118-.223c-1.119-2.119-2.619-3.79-4.461-4.974-1.855-1.184-4.066-1.79-6.579-1.79-2.053 0-3.934.461-5.605 1.356-1.671.908-3.013 2.144-3.961 3.697-.96 1.553-1.447 3.29-1.447 5.171 0 1.882.382 3.434 1.145 4.737s1.868 2.46 3.315 3.447c1.422.974 3.343 2.013 5.711 3.066 2.132.974 3.803 1.908 4.987 2.776 1.158.856 2 1.79 2.487 2.764.487.986.737 2.157.737 3.486 0 1.329-.29 2.461-.869 3.474a6.368 6.368 0 0 1-2.447 2.421c-1.053.592-2.29.895-3.684.895-2.053 0-3.869-.579-5.382-1.724-1.526-1.145-2.697-2.789-3.487-4.895l-.092-.25-4.553 1.895.079.237c.645 1.868 1.606 3.513 2.856 4.908 1.25 1.395 2.802 2.513 4.592 3.303 1.789.789 3.802 1.184 5.987 1.184 2.184 0 4.263-.487 6.078-1.434a10.934 10.934 0 0 0 4.316-4.014c1.04-1.71 1.579-3.71 1.579-5.934 0-2.079-.342-3.895-1.026-5.408l-.013-.013ZM162.25 140.105l-2.092 4.342-16.763 35 4.96.119 18.671-39.461h-4.776ZM52.026 179.566l2.092-4.342 16.764-35-4.961-.119-18.671 39.461h4.776ZM68.842 151.342l11.303 23.882 2.052 4.342h4.816l-15.75-33.263-2.421 5.039ZM21.447 138.895c-11.579 0-20.96 9.381-20.96 20.96s9.381 20.961 20.96 20.961c11.58 0 20.96-9.382 20.96-20.961 0-11.579-9.38-20.96-20.96-20.96Zm0 37.25c-9 0-16.29-7.29-16.29-16.29s7.29-16.289 16.29-16.289 16.29 7.289 16.29 16.289c0 9-7.29 16.29-16.29 16.29ZM139.21 144.447l-2.065-4.342h-4.803l13.211 27.908 2.421-5.052-8.764-18.514Z" fill="#fff"></path></svg>