<svg viewBox="0 0 152 280" fill="white" xmlns="http://www.w3.org/2000/svg" alt="Champions Tactics™ Grimoria Chronicles" width="73" height="90"><path fill-rule="evenodd" clip-rule="evenodd" d="M151.883 158.665c-.6-1.006-11.233-19.708-11.84-30.764.357-3.543 1.764-7.991 3.136-12.328 1.689-5.337 3.324-10.506 2.882-13.614-.802-5.633-2.608-9.854-3.814-9.854-.474 0-.914 1.114-1.494 2.578-.897 2.267-2.126 5.373-4.321 6.473-.66.33-1.519.734-2.494 1.192h-.001c-4.365 2.052-11.039 5.187-12.35 7.655-1.603 3.019-3.612 3.418-5.215 2.013-1.604-1.405-15.249-26.941-16.253-32.98-1.004-6.03-.404-18.498-.404-18.498s-8.228-5.829-6.422-15.082c1.29-6.606 5.852-11.058 8.357-13.5 1.003-.98 1.676-1.636 1.676-1.98 0-1.202-9.224-21.539-34.102-29.974 0 0-4.616-.594-20.464 18.31 0 0-2.204 5.228.6 8.645.107.428.499.073 1.231-.592 2.02-1.833 6.63-6.017 15.021-2.622 11.435 4.626 22.068 22.922 21.866 24.53-.02.15-.003.455.021.894.23 4.23 1.138 20.978-22.486 34.09 0 0-1.207 1.007-1.207 2.412 0 .355.103 1.768.243 3.699.415 5.697 1.158 15.909.56 16.812-.803 1.209-6.22 8.848-8.828 9.449-2.608.601-19.056-5.633-19.258-16.486-.176-9.451 5.425-24.687 7.014-29.012.238-.645.385-1.047.412-1.151.202-.804.035-5.165-3.612-2.209 0 0-8.025 5.43-16.853 18.101-2.312 3.885-3.612 6.61-4.74 8.976-1.744 3.655-3.077 6.449-7.099 11.333-6.617 8.044-5.62 7.639-5.62 7.639s-.404 2.012 1.207 6.835c1.603 4.829 3.611 15.479 3.41 17.492-.061.599-.975 4.405-2.217 9.583-2.932 12.216-7.697 32.067-7.413 35.459-.014 2.816 32.499 53.484 40.726 58.718 0 0 9.03 1.405 28.685 2.817 19.662 1.404 28.49 1.404 28.49 1.404s15.848-16.828 19.662-17.492c0 0 10.229-2.208 12.641-4.829 2.413-2.621 21.266-63.143 20.667-64.142Zm-36.048 46.251c-.963 2.891-12.413 11.615-20.18 17.534-3.029 2.307-5.497 4.187-6.567 5.13-3.813 3.362-4.21 2.069-4.21 2.069-4.01-10.658-3.417-56.245-2.81-56.951.322-.375 8.488-2.081 16.163-3.684 6.756-1.411 13.131-2.743 13.441-3.018.663-.587 3.459-17.436 1.451-16.612-.386.159-1.781.811-3.813 1.763-8.547 4-28.377 13.282-31.942 13.305-4.414.035-37.338-11.084-37.338-11.084s.635 12.565 1.402 13.229c.39.339 8.328 1.855 16.126 3.345v.001c7.502 1.433 14.874 2.842 15.278 3.154.83.636-1.207 59.361-1.207 59.361-8.827-2.208-22.87-16.088-22.87-16.088s.803-4.424 0-5.025c-.801-.601-5.62-1.006-5.62-1.006l-6.016-6.234c-3.012-13.474-8.228-60.123-8.228-60.123s29.891-26.746 45.74-26.138c15.848.601 47.343 20.309 48.946 22.518 1.604 2.208-6.421 60.521-7.76 64.547l.014.007Zm20.597-126.683s1.401-.601-1.806-8.247l-.129-.305c-3.091-7.366-3.586-8.545-11.104-8.745-5.418 0-8.228 4.221-7.426 5.025.379.38 2.321.94 4.445 1.551 2.369.683 4.966 1.431 5.875 2.069.591.415 1.758 1.563 3.11 2.892 2.587 2.545 5.848 5.753 7.035 5.753v.007ZM105.739 196.27c-.398-1.209 2.81-4.221 2.81-4.221 2.81.007 1.805 7.233 0 7.638-1.633.367-2.285-1.734-2.689-3.033a25.16 25.16 0 0 0-.121-.384Z"></path><defs><linearGradient id="game-logo_svg__a" x1="76.308" y1="0.002" x2="76.308" y2="245.303" gradientUnits="userSpaceOnUse"><stop offset="0.209" stop-color="#F7E496"></stop><stop offset="0.811" stop-color="#C1A459"></stop></linearGradient></defs></svg>